# xmcd CD database file
#
# Track frame offsets:
#	150
#	39789
#	67017
#
# Disc length: 2460 seconds
#
# Revision: 0
# Processed by: cddbd v1.5.2PL0 Copyright (c) Steve Scherf et al.
# Submitted via: Feurio! 1.68 - http://www.feurio.com
#
DISCID=1e099a03
DTITLE=Albert Collins - Cotati Caberet   Cotati, CA   09-17-82   Early Show
DYEAR=1900
DGENRE=
TTITLE0=Listen Here
TTITLE1=Got A Mind To Travel
TTITLE2=Angel Of Mercy
EXTD=
EXTT0=
EXTT1=
EXTT2=
PLAYORDER=
